<?xml version="1.0" encoding="UTF-8" standalone="no"?>
<!DOCTYPE svg PUBLIC "-//W3C//DTD SVG 1.1//EN" "http://www.w3.org/Graphics/SVG/1.1/DTD/svg11.dtd">
<svg width="100%" height="100%" viewBox="0 0 299 46" version="1.1" xmlns="http://www.w3.org/2000/svg" xmlns:xlink="http://www.w3.org/1999/xlink" xml:space="preserve" xmlns:serif="http://www.serif.com/" style="fill-rule:evenodd;clip-rule:evenodd;stroke-linejoin:round;stroke-miterlimit:2;">
    <g transform="matrix(1,0,0,1,-424.016,-226)">
        <g transform="matrix(1,0,0,1,-131.614,-27.9562)">
            <g transform="matrix(1,0,0,1.1,0,-29.4003)">
                <g transform="matrix(48,0,0,48,856.062,294.003)">
                </g>
                <text x="552.606px" y="294.003px" style="font-family:'Alta_caption', 'Alta';font-size:48px;">B<tspan x="578.142px 610.446px 635.982px 664.926px 686.094px 696.03px 718.638px 759.054px 780.366px 814.062px 823.998px " y="294.003px 294.003px 294.003px 294.003px 294.003px 294.003px 294.003px 294.003px 294.003px 294.003px 294.003px ">ABULISMEDIA</tspan></text>
            </g>
        </g>
        <g transform="matrix(1,0,0,0.590586,-0.255075,94.6596)">
            <rect x="424.271" y="222.39" width="298.25" height="4.976"/>
        </g>
        <g transform="matrix(1,0,0,0.590586,-0.255075,137.66)">
            <rect x="424.271" y="222.39" width="298.25" height="4.976"/>
        </g>
    </g>
</svg>
